<svg width="244" height="47" viewBox="0 0 244 47" fill="none" xmlns="http://www.w3.org/2000/svg">
<g filter="url(#filter0_d_7_201)">
<rect x="4" width="236" height="39" rx="14" fill="#292929"/>
</g>
<g filter="url(#filter1_i_7_201)">
<path d="M4 8C4 3.58172 7.58172 0 12 0H61.7174V39H12C7.58172 39 4 35.4183 4 31V8Z" fill="#7876FE"/>
</g>
<path d="M81.7941 17.28C83.3141 17.664 84.2901 18.896 84.2901 20.544C84.2901 22.704 82.6101 24.256 80.2741 24.256C78.0021 24.256 76.4181 22.768 76.3541 20.56H79.0901C79.1221 21.312 79.5861 21.808 80.2901 21.808C81.0101 21.808 81.5221 21.28 81.5221 20.496C81.5221 19.712 80.9941 19.232 80.1621 19.232H78.4661V18.64L80.1941 15.792H76.6261V13.36H83.9221V13.856L81.7941 17.28ZM90.2542 12.8C93.6462 12.8 96.0462 15.12 96.0462 18.4C96.0462 21.664 93.6462 24 90.2542 24H85.7262V12.8H90.2542ZM90.1102 21.184C91.7742 21.184 92.8782 20.048 92.8782 18.4C92.8782 16.736 91.7742 15.632 90.1102 15.632H88.8302V21.184H90.1102ZM114.809 24H111.689L110.825 17.552L107.849 24.032H106.937L103.977 17.568L103.113 24H99.9769L101.673 12.8H104.761L107.401 18.896L110.057 12.8H113.129L114.809 24ZM120.168 24.288C117.352 24.288 115.336 22.352 115.336 19.68C115.336 17.008 117.352 15.088 120.168 15.088C122.984 15.088 125.016 17.008 125.016 19.68C125.016 22.352 122.984 24.288 120.168 24.288ZM120.168 21.616C121.256 21.616 122.04 20.832 122.04 19.696C122.04 18.56 121.256 17.76 120.168 17.76C119.096 17.76 118.312 18.544 118.312 19.696C118.312 20.832 119.096 21.616 120.168 21.616ZM132.321 12.24H135.265V24H133.073L132.785 23.36C132.081 23.952 131.185 24.304 130.177 24.304C127.537 24.304 125.649 22.368 125.649 19.68C125.649 17.008 127.537 15.088 130.177 15.088C130.977 15.088 131.713 15.296 132.321 15.68V12.24ZM130.577 21.664C131.697 21.664 132.513 20.816 132.513 19.696C132.513 18.56 131.697 17.712 130.577 17.712C129.473 17.712 128.641 18.56 128.641 19.696C128.641 20.816 129.473 21.664 130.577 21.664ZM145.775 19.6C145.775 19.872 145.759 20.128 145.727 20.4H139.311C139.503 21.392 140.127 21.904 141.071 21.904C141.759 21.904 142.351 21.6 142.623 21.088H145.599C144.991 23.056 143.231 24.288 141.071 24.288C138.367 24.288 136.383 22.32 136.383 19.68C136.383 17.04 138.351 15.088 141.071 15.088C143.855 15.088 145.775 17.072 145.775 19.6ZM141.071 17.424C140.207 17.424 139.599 17.888 139.359 18.752H142.847C142.591 17.888 141.967 17.424 141.071 17.424ZM146.879 24V12.24H149.855V24H146.879Z" fill="#CACACA"/>
<defs>
<filter id="filter0_d_7_201" x="0" y="0" width="244" height="47" filterUnits="userSpaceOnUse" color-interpolation-filters="sRGB">
<feFlood flood-opacity="0" result="BackgroundImageFix"/>
<feColorMatrix in="SourceAlpha" type="matrix" values="0 0 0 0 0 0 0 0 0 0 0 0 0 0 0 0 0 0 127 0" result="hardAlpha"/>
<feOffset dy="4"/>
<feGaussianBlur stdDeviation="2"/>
<feComposite in2="hardAlpha" operator="out"/>
<feColorMatrix type="matrix" values="0 0 0 0 0 0 0 0 0 0 0 0 0 0 0 0 0 0 0.25 0"/>
<feBlend mode="normal" in2="BackgroundImageFix" result="effect1_dropShadow_7_201"/>
<feBlend mode="normal" in="SourceGraphic" in2="effect1_dropShadow_7_201" result="shape"/>
</filter>
<filter id="filter1_i_7_201" x="4" y="0" width="57.7173" height="43" filterUnits="userSpaceOnUse" color-interpolation-filters="sRGB">
<feFlood flood-opacity="0" result="BackgroundImageFix"/>
<feBlend mode="normal" in="SourceGraphic" in2="BackgroundImageFix" result="shape"/>
<feColorMatrix in="SourceAlpha" type="matrix" values="0 0 0 0 0 0 0 0 0 0 0 0 0 0 0 0 0 0 127 0" result="hardAlpha"/>
<feOffset dy="4"/>
<feGaussianBlur stdDeviation="2"/>
<feComposite in2="hardAlpha" operator="arithmetic" k2="-1" k3="1"/>
<feColorMatrix type="matrix" values="0 0 0 0 0 0 0 0 0 0 0 0 0 0 0 0 0 0 0.25 0"/>
<feBlend mode="normal" in2="shape" result="effect1_innerShadow_7_201"/>
</filter>
</defs>
</svg>
