<svg width="244" height="47" viewBox="0 0 244 47" fill="none" xmlns="http://www.w3.org/2000/svg">
<g filter="url(#filter0_d_7_205)">
<rect x="4" width="236" height="39" rx="14" fill="#292929"/>
</g>
<g filter="url(#filter1_i_7_205)">
<path d="M4 8C4 3.58172 7.58172 0 12 0H61.7174V39H12C7.58172 39 4 35.4183 4 31V8Z" fill="#32CAA7"/>
</g>
<path d="M81.4261 12.8C84.8181 12.8 87.2181 15.12 87.2181 18.4C87.2181 21.664 84.8181 24 81.4261 24H76.8981V12.8H81.4261ZM81.2821 21.184C82.9461 21.184 84.0501 20.048 84.0501 18.4C84.0501 16.736 82.9461 15.632 81.2821 15.632H80.0021V21.184H81.2821ZM88.3951 14.288V11.76H91.3391V14.288H88.3951ZM88.3791 24V15.36H91.3551V24H88.3791ZM99.9009 15.36L101.901 15.376V23.056C101.901 25.76 100.125 27.44 97.2769 27.44C94.8289 27.44 93.1169 26.208 92.7169 24.16H95.5809C95.7889 24.736 96.5249 25.056 97.2449 25.056C98.2529 25.056 99.0529 24.416 99.0529 23.392V23.136C98.3969 23.536 97.6289 23.776 96.7969 23.776C94.3169 23.776 92.4769 21.936 92.4769 19.44C92.4769 16.976 94.3169 15.088 96.7969 15.088C97.8369 15.088 98.7809 15.472 99.5169 16.096L99.9009 15.36ZM97.2929 21.328C98.3649 21.328 99.1329 20.544 99.1329 19.44C99.1329 18.352 98.3649 17.552 97.2929 17.552C96.2209 17.552 95.4369 18.352 95.4369 19.44C95.4369 20.544 96.2049 21.328 97.2929 21.328ZM103.551 14.288V11.76H106.495V14.288H103.551ZM103.535 24V15.36H106.511V24H103.535ZM112.817 21.408H113.953V24H111.905C110.001 24 108.833 22.832 108.833 20.912V17.664H107.249V16.96L111.121 12.848H111.745V15.36H113.905V17.664H111.809V20.416C111.809 21.024 112.193 21.408 112.817 21.408ZM121.996 15.36H124.22V24H121.916L121.66 23.392C120.956 23.968 120.06 24.288 119.052 24.288C116.412 24.288 114.524 22.368 114.524 19.68C114.524 17.008 116.412 15.104 119.052 15.104C120.076 15.104 120.988 15.44 121.692 16.032L121.996 15.36ZM119.452 21.664C120.572 21.664 121.388 20.816 121.388 19.68C121.388 18.56 120.572 17.728 119.452 17.728C118.332 17.728 117.516 18.56 117.516 19.68C117.516 20.816 118.332 21.664 119.452 21.664ZM125.848 24V12.24H128.824V24H125.848ZM140.636 15.36H142.86V24H140.556L140.3 23.392C139.596 23.968 138.7 24.288 137.692 24.288C135.052 24.288 133.164 22.368 133.164 19.68C133.164 17.008 135.052 15.104 137.692 15.104C138.716 15.104 139.628 15.44 140.332 16.032L140.636 15.36ZM138.092 21.664C139.212 21.664 140.028 20.816 140.028 19.68C140.028 18.56 139.212 17.728 138.092 17.728C136.972 17.728 136.156 18.56 136.156 19.68C136.156 20.816 136.972 21.664 138.092 21.664ZM149.32 15.328H150.12V18.048H148.952C147.912 18.048 147.464 18.512 147.464 19.616V24H144.488V15.36H146.488L146.952 16.32C147.56 15.616 148.296 15.328 149.32 15.328ZM155.817 21.408H156.953V24H154.905C153.001 24 151.833 22.832 151.833 20.912V17.664H150.249V16.96L154.121 12.848H154.745V15.36H156.905V17.664H154.809V20.416C154.809 21.024 155.193 21.408 155.817 21.408Z" fill="#CACACA"/>
<defs>
<filter id="filter0_d_7_205" x="0" y="0" width="244" height="47" filterUnits="userSpaceOnUse" color-interpolation-filters="sRGB">
<feFlood flood-opacity="0" result="BackgroundImageFix"/>
<feColorMatrix in="SourceAlpha" type="matrix" values="0 0 0 0 0 0 0 0 0 0 0 0 0 0 0 0 0 0 127 0" result="hardAlpha"/>
<feOffset dy="4"/>
<feGaussianBlur stdDeviation="2"/>
<feComposite in2="hardAlpha" operator="out"/>
<feColorMatrix type="matrix" values="0 0 0 0 0 0 0 0 0 0 0 0 0 0 0 0 0 0 0.25 0"/>
<feBlend mode="normal" in2="BackgroundImageFix" result="effect1_dropShadow_7_205"/>
<feBlend mode="normal" in="SourceGraphic" in2="effect1_dropShadow_7_205" result="shape"/>
</filter>
<filter id="filter1_i_7_205" x="4" y="0" width="57.7173" height="43" filterUnits="userSpaceOnUse" color-interpolation-filters="sRGB">
<feFlood flood-opacity="0" result="BackgroundImageFix"/>
<feBlend mode="normal" in="SourceGraphic" in2="BackgroundImageFix" result="shape"/>
<feColorMatrix in="SourceAlpha" type="matrix" values="0 0 0 0 0 0 0 0 0 0 0 0 0 0 0 0 0 0 127 0" result="hardAlpha"/>
<feOffset dy="4"/>
<feGaussianBlur stdDeviation="2"/>
<feComposite in2="hardAlpha" operator="arithmetic" k2="-1" k3="1"/>
<feColorMatrix type="matrix" values="0 0 0 0 0 0 0 0 0 0 0 0 0 0 0 0 0 0 0.25 0"/>
<feBlend mode="normal" in2="shape" result="effect1_innerShadow_7_205"/>
</filter>
</defs>
</svg>
