<svg width="244" height="47" viewBox="0 0 244 47" fill="none" xmlns="http://www.w3.org/2000/svg">
<g filter="url(#filter0_d_7_200)">
<rect x="4" width="236" height="39" rx="14" fill="#292929"/>
</g>
<g filter="url(#filter1_i_7_200)">
<path d="M4 8C4 3.58172 7.58172 0 12 0H61.7174V39H12C7.58172 39 4 35.4183 4 31V8Z" fill="#AD018D"/>
</g>
<path d="M81.6661 12.8C84.0501 12.8 85.8261 14.512 85.8261 16.848C85.8261 19.2 84.0501 20.912 81.6661 20.912H79.9861V24H76.8981V12.8H81.6661ZM81.2981 18.224C82.1141 18.224 82.6421 17.664 82.6421 16.864C82.6421 16.064 82.1141 15.504 81.2981 15.504H79.9861V18.224H81.2981ZM91.6486 15.328H92.4486V18.048H91.2806C90.2406 18.048 89.7926 18.512 89.7926 19.616V24H86.8166V15.36H88.8166L89.2806 16.32C89.8886 15.616 90.6246 15.328 91.6486 15.328ZM97.512 24.288C94.696 24.288 92.68 22.352 92.68 19.68C92.68 17.008 94.696 15.088 97.512 15.088C100.328 15.088 102.36 17.008 102.36 19.68C102.36 22.352 100.328 24.288 97.512 24.288ZM97.512 21.616C98.6 21.616 99.384 20.832 99.384 19.696C99.384 18.56 98.6 17.76 97.512 17.76C96.44 17.76 95.656 18.544 95.656 19.696C95.656 20.832 96.44 21.616 97.512 21.616ZM110.416 15.36L112.416 15.376V23.056C112.416 25.76 110.64 27.44 107.792 27.44C105.344 27.44 103.632 26.208 103.232 24.16H106.096C106.304 24.736 107.04 25.056 107.76 25.056C108.768 25.056 109.568 24.416 109.568 23.392V23.136C108.912 23.536 108.144 23.776 107.312 23.776C104.832 23.776 102.992 21.936 102.992 19.44C102.992 16.976 104.832 15.088 107.312 15.088C108.352 15.088 109.296 15.472 110.032 16.096L110.416 15.36ZM107.808 21.328C108.88 21.328 109.648 20.544 109.648 19.44C109.648 18.352 108.88 17.552 107.808 17.552C106.736 17.552 105.952 18.352 105.952 19.44C105.952 20.544 106.72 21.328 107.808 21.328ZM118.883 15.328H119.683V18.048H118.515C117.475 18.048 117.027 18.512 117.027 19.616V24H114.051V15.36H116.051L116.515 16.32C117.123 15.616 117.859 15.328 118.883 15.328ZM127.386 15.36H129.61V24H127.306L127.05 23.392C126.346 23.968 125.45 24.288 124.442 24.288C121.802 24.288 119.914 22.368 119.914 19.68C119.914 17.008 121.802 15.104 124.442 15.104C125.466 15.104 126.378 15.44 127.082 16.032L127.386 15.36ZM124.842 21.664C125.962 21.664 126.778 20.816 126.778 19.68C126.778 18.56 125.962 17.728 124.842 17.728C123.722 17.728 122.906 18.56 122.906 19.68C122.906 20.816 123.722 21.664 124.842 21.664ZM141.414 15.12C143.27 15.12 144.486 16.56 144.486 18.592V24H141.51V18.96C141.51 18.048 141.19 17.616 140.55 17.616C139.734 17.616 139.318 18.176 139.318 19.264V24H136.422V18.96C136.422 18.08 136.086 17.616 135.462 17.616C134.662 17.616 134.214 18.192 134.214 19.264V24H131.238V15.36H133.334L133.75 16.304C134.374 15.568 135.286 15.12 136.278 15.12C137.334 15.12 138.214 15.584 138.758 16.384C139.382 15.6 140.342 15.12 141.414 15.12ZM156.196 15.12C158.052 15.12 159.268 16.56 159.268 18.592V24H156.292V18.96C156.292 18.048 155.972 17.616 155.332 17.616C154.516 17.616 154.1 18.176 154.1 19.264V24H151.204V18.96C151.204 18.08 150.868 17.616 150.244 17.616C149.444 17.616 148.996 18.192 148.996 19.264V24H146.02V15.36H148.116L148.532 16.304C149.156 15.568 150.068 15.12 151.06 15.12C152.116 15.12 152.996 15.584 153.54 16.384C154.164 15.6 155.124 15.12 156.196 15.12ZM160.817 14.288V11.76H163.761V14.288H160.817ZM160.801 24V15.36H163.777V24H160.801ZM170.611 15.12C172.611 15.12 173.939 16.544 173.939 18.736V24H170.963V19.152C170.963 18.144 170.579 17.648 169.827 17.648C168.899 17.648 168.371 18.288 168.371 19.392V24H165.395V15.36H167.491L167.891 16.256C168.531 15.536 169.491 15.12 170.611 15.12ZM182.385 15.36L184.385 15.376V23.056C184.385 25.76 182.609 27.44 179.761 27.44C177.313 27.44 175.601 26.208 175.201 24.16H178.065C178.273 24.736 179.009 25.056 179.729 25.056C180.737 25.056 181.537 24.416 181.537 23.392V23.136C180.881 23.536 180.113 23.776 179.281 23.776C176.801 23.776 174.961 21.936 174.961 19.44C174.961 16.976 176.801 15.088 179.281 15.088C180.321 15.088 181.265 15.472 182.001 16.096L182.385 15.36ZM179.777 21.328C180.849 21.328 181.617 20.544 181.617 19.44C181.617 18.352 180.849 17.552 179.777 17.552C178.705 17.552 177.921 18.352 177.921 19.44C177.921 20.544 178.689 21.328 179.777 21.328Z" fill="#CACACA"/>
<defs>
<filter id="filter0_d_7_200" x="0" y="0" width="244" height="47" filterUnits="userSpaceOnUse" color-interpolation-filters="sRGB">
<feFlood flood-opacity="0" result="BackgroundImageFix"/>
<feColorMatrix in="SourceAlpha" type="matrix" values="0 0 0 0 0 0 0 0 0 0 0 0 0 0 0 0 0 0 127 0" result="hardAlpha"/>
<feOffset dy="4"/>
<feGaussianBlur stdDeviation="2"/>
<feComposite in2="hardAlpha" operator="out"/>
<feColorMatrix type="matrix" values="0 0 0 0 0 0 0 0 0 0 0 0 0 0 0 0 0 0 0.25 0"/>
<feBlend mode="normal" in2="BackgroundImageFix" result="effect1_dropShadow_7_200"/>
<feBlend mode="normal" in="SourceGraphic" in2="effect1_dropShadow_7_200" result="shape"/>
</filter>
<filter id="filter1_i_7_200" x="4" y="0" width="57.7173" height="43" filterUnits="userSpaceOnUse" color-interpolation-filters="sRGB">
<feFlood flood-opacity="0" result="BackgroundImageFix"/>
<feBlend mode="normal" in="SourceGraphic" in2="BackgroundImageFix" result="shape"/>
<feColorMatrix in="SourceAlpha" type="matrix" values="0 0 0 0 0 0 0 0 0 0 0 0 0 0 0 0 0 0 127 0" result="hardAlpha"/>
<feOffset dy="4"/>
<feGaussianBlur stdDeviation="2"/>
<feComposite in2="hardAlpha" operator="arithmetic" k2="-1" k3="1"/>
<feColorMatrix type="matrix" values="0 0 0 0 0 0 0 0 0 0 0 0 0 0 0 0 0 0 0.25 0"/>
<feBlend mode="normal" in2="shape" result="effect1_innerShadow_7_200"/>
</filter>
</defs>
</svg>
