<svg width="200" height="40" viewBox="0 0 200 40" fill="none" xmlns="http://www.w3.org/2000/svg">
    <defs>
        <symbol id="3d-model">

            <g id="3d-model-label" class="label">
                <g id="color-edge" filter="url(#filter0_i_2_2)">
                    <path d="M10 8C10 3.58172 13.5817 0 18 0H105V40H18C13.5817 40 10 36.4183 10 32V8Z"
                        fill="var(--3d-model-label)" />
                </g>
                <path id="background" d="M51 0H192C196.418 0 200 3.58172 200 8V32C200 36.4183 196.418 40 192 40H51V0Z"
                    fill="#353535" />
                <path id="text"
                    d="M82.3391 27.2C81.6191 27.2 80.8725 27.1067 80.0991 26.92C79.3258 26.7333 78.6525 26.4533 78.0791 26.08C77.8125 25.9067 77.6325 25.7067 77.5391 25.48C77.4458 25.2533 77.4191 25.04 77.4591 24.84C77.5125 24.6267 77.6125 24.4467 77.7591 24.3C77.9191 24.1533 78.1125 24.0667 78.3391 24.04C78.5791 24.0133 78.8391 24.0733 79.1191 24.22C79.6658 24.5133 80.1925 24.7267 80.6991 24.86C81.2058 24.98 81.7258 25.04 82.2591 25.04C82.8458 25.04 83.3391 24.96 83.7391 24.8C84.1391 24.64 84.4391 24.4 84.6391 24.08C84.8525 23.76 84.9591 23.3733 84.9591 22.92C84.9591 22.2533 84.7325 21.76 84.2791 21.44C83.8391 21.1067 83.1925 20.94 82.3391 20.94H81.0591C80.6858 20.94 80.3991 20.8467 80.1991 20.66C80.0125 20.4733 79.9191 20.2133 79.9191 19.88C79.9191 19.5467 80.0125 19.2867 80.1991 19.1C80.3991 18.9133 80.6858 18.82 81.0591 18.82H82.0991C82.6058 18.82 83.0391 18.74 83.3991 18.58C83.7591 18.4067 84.0391 18.1667 84.2391 17.86C84.4391 17.5533 84.5391 17.18 84.5391 16.74C84.5391 16.1267 84.3325 15.66 83.9191 15.34C83.5191 15.02 82.9325 14.86 82.1591 14.86C81.6658 14.86 81.1991 14.92 80.7591 15.04C80.3325 15.1467 79.8591 15.3533 79.3391 15.66C79.0991 15.8067 78.8658 15.8667 78.6391 15.84C78.4258 15.8133 78.2458 15.7267 78.0991 15.58C77.9525 15.4333 77.8525 15.26 77.7991 15.06C77.7458 14.8467 77.7591 14.6333 77.8391 14.42C77.9191 14.1933 78.0858 14 78.3391 13.84C78.9125 13.4667 79.5458 13.1867 80.2391 13C80.9325 12.8 81.6458 12.7 82.3791 12.7C83.3525 12.7 84.1858 12.8533 84.8791 13.16C85.5725 13.4533 86.0991 13.88 86.4591 14.44C86.8325 14.9867 87.0191 15.6533 87.0191 16.44C87.0191 17 86.9125 17.5133 86.6991 17.98C86.4858 18.4333 86.1858 18.82 85.7991 19.14C85.4125 19.46 84.9458 19.6867 84.3991 19.82V19.58C85.3591 19.74 86.1058 20.14 86.6391 20.78C87.1725 21.4067 87.4391 22.1933 87.4391 23.14C87.4391 23.9667 87.2325 24.6867 86.8191 25.3C86.4058 25.9133 85.8191 26.3867 85.0591 26.72C84.2991 27.04 83.3925 27.2 82.3391 27.2ZM91.5113 27C91.0713 27 90.7313 26.8867 90.4913 26.66C90.2647 26.42 90.1513 26.08 90.1513 25.64V14.26C90.1513 13.82 90.2647 13.4867 90.4913 13.26C90.7313 13.02 91.0713 12.9 91.5113 12.9H95.3913C97.7513 12.9 99.5713 13.5067 100.851 14.72C102.145 15.9333 102.791 17.6733 102.791 19.94C102.791 21.0733 102.625 22.08 102.291 22.96C101.971 23.8267 101.491 24.56 100.851 25.16C100.225 25.76 99.4513 26.22 98.5313 26.54C97.6247 26.8467 96.578 27 95.3913 27H91.5113ZM92.7113 24.88H95.2313C96.058 24.88 96.7713 24.78 97.3713 24.58C97.9847 24.3667 98.4913 24.06 98.8913 23.66C99.3047 23.2467 99.6113 22.7333 99.8113 22.12C100.011 21.4933 100.111 20.7667 100.111 19.94C100.111 18.2867 99.7047 17.0533 98.8913 16.24C98.078 15.4267 96.858 15.02 95.2313 15.02H92.7113V24.88ZM112.015 27.16C111.642 27.16 111.355 27.0533 111.155 26.84C110.955 26.6267 110.855 26.3333 110.855 25.96V13.94C110.855 13.5533 110.962 13.26 111.175 13.06C111.389 12.8467 111.682 12.74 112.055 12.74C112.389 12.74 112.649 12.8067 112.835 12.94C113.035 13.06 113.215 13.2733 113.375 13.58L118.315 22.72H117.675L122.615 13.58C122.775 13.2733 122.949 13.06 123.135 12.94C123.322 12.8067 123.582 12.74 123.915 12.74C124.289 12.74 124.575 12.8467 124.775 13.06C124.975 13.26 125.075 13.5533 125.075 13.94V25.96C125.075 26.3333 124.975 26.6267 124.775 26.84C124.589 27.0533 124.302 27.16 123.915 27.16C123.542 27.16 123.255 27.0533 123.055 26.84C122.855 26.6267 122.755 26.3333 122.755 25.96V16.7H123.195L118.995 24.36C118.862 24.5867 118.722 24.7533 118.575 24.86C118.429 24.9667 118.229 25.02 117.975 25.02C117.722 25.02 117.515 24.9667 117.355 24.86C117.195 24.74 117.055 24.5733 116.935 24.36L112.695 16.68H113.175V25.96C113.175 26.3333 113.075 26.6267 112.875 26.84C112.689 27.0533 112.402 27.16 112.015 27.16ZM132.399 27.2C131.385 27.2 130.505 26.9933 129.759 26.58C129.012 26.1667 128.432 25.58 128.019 24.82C127.605 24.0467 127.399 23.14 127.399 22.1C127.399 21.3133 127.512 20.6133 127.739 20C127.979 19.3733 128.319 18.84 128.759 18.4C129.199 17.9467 129.725 17.6067 130.339 17.38C130.952 17.14 131.639 17.02 132.399 17.02C133.412 17.02 134.292 17.2267 135.039 17.64C135.785 18.0533 136.365 18.64 136.779 19.4C137.192 20.16 137.399 21.06 137.399 22.1C137.399 22.8867 137.279 23.5933 137.039 24.22C136.812 24.8467 136.479 25.3867 136.039 25.84C135.599 26.28 135.072 26.62 134.459 26.86C133.845 27.0867 133.159 27.2 132.399 27.2ZM132.399 25.3C132.892 25.3 133.325 25.18 133.699 24.94C134.072 24.7 134.359 24.3467 134.559 23.88C134.772 23.4 134.879 22.8067 134.879 22.1C134.879 21.0333 134.652 20.24 134.199 19.72C133.745 19.1867 133.145 18.92 132.399 18.92C131.905 18.92 131.472 19.04 131.099 19.28C130.725 19.5067 130.432 19.86 130.219 20.34C130.019 20.8067 129.919 21.3933 129.919 22.1C129.919 23.1533 130.145 23.9533 130.599 24.5C131.052 25.0333 131.652 25.3 132.399 25.3ZM143.222 27.2C142.369 27.2 141.615 26.9933 140.962 26.58C140.322 26.1667 139.822 25.58 139.462 24.82C139.102 24.0467 138.922 23.14 138.922 22.1C138.922 21.0467 139.102 20.1467 139.462 19.4C139.822 18.64 140.322 18.0533 140.962 17.64C141.615 17.2267 142.369 17.02 143.222 17.02C144.035 17.02 144.742 17.22 145.342 17.62C145.955 18.02 146.369 18.5467 146.582 19.2H146.362V14C146.362 13.5867 146.469 13.2733 146.682 13.06C146.895 12.8467 147.202 12.74 147.602 12.74C148.002 12.74 148.309 12.8467 148.522 13.06C148.749 13.2733 148.862 13.5867 148.862 14V25.88C148.862 26.2933 148.755 26.6133 148.542 26.84C148.329 27.0533 148.022 27.16 147.622 27.16C147.222 27.16 146.915 27.0533 146.702 26.84C146.489 26.6133 146.382 26.2933 146.382 25.88V24.32L146.602 24.92C146.402 25.6133 145.995 26.1667 145.382 26.58C144.769 26.9933 144.049 27.2 143.222 27.2ZM143.922 25.3C144.415 25.3 144.849 25.18 145.222 24.94C145.595 24.7 145.882 24.3467 146.082 23.88C146.295 23.4 146.402 22.8067 146.402 22.1C146.402 21.0333 146.175 20.24 145.722 19.72C145.269 19.1867 144.669 18.92 143.922 18.92C143.429 18.92 142.995 19.04 142.622 19.28C142.249 19.5067 141.955 19.86 141.742 20.34C141.542 20.8067 141.442 21.3933 141.442 22.1C141.442 23.1533 141.669 23.9533 142.122 24.5C142.575 25.0333 143.175 25.3 143.922 25.3ZM156.274 27.2C155.168 27.2 154.214 26.9933 153.414 26.58C152.614 26.1667 151.994 25.58 151.554 24.82C151.128 24.06 150.914 23.16 150.914 22.12C150.914 21.1067 151.121 20.22 151.534 19.46C151.961 18.7 152.541 18.1067 153.274 17.68C154.021 17.24 154.868 17.02 155.814 17.02C156.508 17.02 157.128 17.1333 157.674 17.36C158.234 17.5867 158.708 17.9133 159.094 18.34C159.494 18.7667 159.794 19.2867 159.994 19.9C160.208 20.5 160.314 21.18 160.314 21.94C160.314 22.18 160.228 22.3667 160.054 22.5C159.894 22.62 159.661 22.68 159.354 22.68H152.934V21.24H158.554L158.234 21.54C158.234 20.9267 158.141 20.4133 157.954 20C157.781 19.5867 157.521 19.2733 157.174 19.06C156.841 18.8333 156.421 18.72 155.914 18.72C155.354 18.72 154.874 18.8533 154.474 19.12C154.088 19.3733 153.788 19.74 153.574 20.22C153.374 20.6867 153.274 21.2467 153.274 21.9V22.04C153.274 23.1333 153.528 23.9533 154.034 24.5C154.554 25.0333 155.314 25.3 156.314 25.3C156.661 25.3 157.048 25.26 157.474 25.18C157.914 25.0867 158.328 24.9333 158.714 24.72C158.994 24.56 159.241 24.4933 159.454 24.52C159.668 24.5333 159.834 24.6067 159.954 24.74C160.088 24.8733 160.168 25.04 160.194 25.24C160.221 25.4267 160.181 25.62 160.074 25.82C159.981 26.02 159.814 26.1933 159.574 26.34C159.108 26.6333 158.568 26.8533 157.954 27C157.354 27.1333 156.794 27.2 156.274 27.2ZM165.634 27.2C164.527 27.2 163.694 26.8867 163.134 26.26C162.574 25.62 162.294 24.6867 162.294 23.46V14C162.294 13.5867 162.401 13.2733 162.614 13.06C162.827 12.8467 163.134 12.74 163.534 12.74C163.934 12.74 164.241 12.8467 164.454 13.06C164.681 13.2733 164.794 13.5867 164.794 14V23.34C164.794 23.9533 164.921 24.4067 165.174 24.7C165.441 24.9933 165.814 25.14 166.294 25.14C166.401 25.14 166.501 25.14 166.594 25.14C166.687 25.1267 166.781 25.1133 166.874 25.1C167.061 25.0733 167.187 25.1267 167.254 25.26C167.321 25.38 167.354 25.6333 167.354 26.02C167.354 26.3533 167.287 26.6133 167.154 26.8C167.021 26.9867 166.801 27.1 166.494 27.14C166.361 27.1533 166.221 27.1667 166.074 27.18C165.927 27.1933 165.781 27.2 165.634 27.2Z"
                    fill="var(--text)" />
            </g>
            <defs>
                <filter id="filter0_i_2_2" x="10" y="0" width="95" height="44" filterUnits="userSpaceOnUse"
                    color-interpolation-filters="sRGB">
                    <feFlood flood-opacity="0" result="BackgroundImageFix" />
                    <feBlend mode="normal" in="SourceGraphic" in2="BackgroundImageFix" result="shape" />
                    <feColorMatrix in="SourceAlpha" type="matrix" values="0 0 0 0 0 0 0 0 0 0 0 0 0 0 0 0 0 0 127 0"
                        result="hardAlpha" />
                    <feOffset dy="4" />
                    <feGaussianBlur stdDeviation="2" />
                    <feComposite in2="hardAlpha" operator="arithmetic" k2="-1" k3="1" />
                    <feColorMatrix type="matrix" values="0 0 0 0 0 0 0 0 0 0 0 0 0 0 0 0 0 0 0.25 0" />
                    <feBlend mode="normal" in2="shape" result="effect1_innerShadow_2_2" />
                </filter>
            </defs>
        </symbol>
    </defs>
</svg>