<svg width="200" height="40" viewBox="0 0 200 40" fill="none" xmlns="http://www.w3.org/2000/svg">
    <defs>
        <symbol id="digital-art">
            <g id="digital-art-label" class="label">
                <g id="color-edge" filter="url(#filter0_i_2_2)">
                    <path d="M10 8C10 3.58172 13.5817 0 18 0H105V40H18C13.5817 40 10 36.4183 10 32V8Z"
                        fill="var(--digital-art-label)" />
                </g>
                <path id="background" d="M51 0H192C196.418 0 200 3.58172 200 8V32C200 36.4183 196.418 40 192 40H51V0Z"
                    fill="#353535" />
                <path id="text"
                    d="M75.4566 27C75.0166 27 74.6766 26.8867 74.4366 26.66C74.21 26.42 74.0966 26.08 74.0966 25.64V14.26C74.0966 13.82 74.21 13.4867 74.4366 13.26C74.6766 13.02 75.0166 12.9 75.4566 12.9H79.3366C81.6966 12.9 83.5166 13.5067 84.7966 14.72C86.09 15.9333 86.7366 17.6733 86.7366 19.94C86.7366 21.0733 86.57 22.08 86.2366 22.96C85.9166 23.8267 85.4366 24.56 84.7966 25.16C84.17 25.76 83.3966 26.22 82.4766 26.54C81.57 26.8467 80.5233 27 79.3366 27H75.4566ZM76.6566 24.88H79.1766C80.0033 24.88 80.7166 24.78 81.3166 24.58C81.93 24.3667 82.4366 24.06 82.8366 23.66C83.25 23.2467 83.5566 22.7333 83.7566 22.12C83.9566 21.4933 84.0566 20.7667 84.0566 19.94C84.0566 18.2867 83.65 17.0533 82.8366 16.24C82.0233 15.4267 80.8033 15.02 79.1766 15.02H76.6566V24.88ZM90.331 27.14C89.931 27.14 89.6243 27.02 89.411 26.78C89.1977 26.54 89.091 26.2067 89.091 25.78V18.44C89.091 18 89.1977 17.6667 89.411 17.44C89.6243 17.2 89.931 17.08 90.331 17.08C90.731 17.08 91.0377 17.2 91.251 17.44C91.4777 17.6667 91.591 18 91.591 18.44V25.78C91.591 26.2067 91.4843 26.54 91.271 26.78C91.0577 27.02 90.7443 27.14 90.331 27.14ZM90.331 15.22C89.8643 15.22 89.4977 15.1067 89.231 14.88C88.9777 14.64 88.851 14.3133 88.851 13.9C88.851 13.4733 88.9777 13.1467 89.231 12.92C89.4977 12.6933 89.8643 12.58 90.331 12.58C90.811 12.58 91.1777 12.6933 91.431 12.92C91.6843 13.1467 91.811 13.4733 91.811 13.9C91.811 14.3133 91.6843 14.64 91.431 14.88C91.1777 15.1067 90.811 15.22 90.331 15.22ZM98.7487 30.8C98.0287 30.8 97.3287 30.7333 96.6487 30.6C95.982 30.4667 95.3753 30.26 94.8287 29.98C94.5753 29.8467 94.402 29.6867 94.3087 29.5C94.2287 29.3133 94.202 29.12 94.2287 28.92C94.2687 28.7333 94.3487 28.5667 94.4687 28.42C94.602 28.2733 94.762 28.1733 94.9487 28.12C95.1353 28.0667 95.3287 28.0933 95.5287 28.2C96.1153 28.4933 96.6687 28.68 97.1887 28.76C97.722 28.8533 98.1753 28.9 98.5487 28.9C99.442 28.9 100.109 28.68 100.549 28.24C101.002 27.8133 101.229 27.1733 101.229 26.32V24.52H101.409C101.209 25.2 100.789 25.7467 100.149 26.16C99.522 26.56 98.8087 26.76 98.0087 26.76C97.1287 26.76 96.362 26.56 95.7087 26.16C95.0553 25.7467 94.5487 25.1733 94.1887 24.44C93.8287 23.7067 93.6487 22.8533 93.6487 21.88C93.6487 21.1467 93.7487 20.4867 93.9487 19.9C94.162 19.3 94.4553 18.7867 94.8287 18.36C95.2153 17.9333 95.6753 17.6067 96.2087 17.38C96.7553 17.14 97.3553 17.02 98.0087 17.02C98.8353 17.02 99.5553 17.2267 100.169 17.64C100.795 18.04 101.202 18.5733 101.389 19.24L101.189 19.74V18.32C101.189 17.9067 101.295 17.5933 101.509 17.38C101.735 17.1667 102.042 17.06 102.429 17.06C102.829 17.06 103.135 17.1667 103.349 17.38C103.562 17.5933 103.669 17.9067 103.669 18.32V26.02C103.669 27.6067 103.249 28.8 102.409 29.6C101.569 30.4 100.349 30.8 98.7487 30.8ZM98.6887 24.86C99.2087 24.86 99.6553 24.74 100.029 24.5C100.402 24.26 100.689 23.92 100.889 23.48C101.102 23.0267 101.209 22.4933 101.209 21.88C101.209 20.96 100.982 20.24 100.529 19.72C100.075 19.1867 99.462 18.92 98.6887 18.92C98.1687 18.92 97.722 19.04 97.3487 19.28C96.9753 19.52 96.682 19.86 96.4687 20.3C96.2687 20.74 96.1687 21.2667 96.1687 21.88C96.1687 22.8 96.3953 23.5267 96.8487 24.06C97.302 24.5933 97.9153 24.86 98.6887 24.86ZM107.499 27.14C107.099 27.14 106.792 27.02 106.579 26.78C106.366 26.54 106.259 26.2067 106.259 25.78V18.44C106.259 18 106.366 17.6667 106.579 17.44C106.792 17.2 107.099 17.08 107.499 17.08C107.899 17.08 108.206 17.2 108.419 17.44C108.646 17.6667 108.759 18 108.759 18.44V25.78C108.759 26.2067 108.652 26.54 108.439 26.78C108.226 27.02 107.912 27.14 107.499 27.14ZM107.499 15.22C107.032 15.22 106.666 15.1067 106.399 14.88C106.146 14.64 106.019 14.3133 106.019 13.9C106.019 13.4733 106.146 13.1467 106.399 12.92C106.666 12.6933 107.032 12.58 107.499 12.58C107.979 12.58 108.346 12.6933 108.599 12.92C108.852 13.1467 108.979 13.4733 108.979 13.9C108.979 14.3133 108.852 14.64 108.599 14.88C108.346 15.1067 107.979 15.22 107.499 15.22ZM115.837 27.2C114.97 27.2 114.243 27.0533 113.657 26.76C113.083 26.4667 112.657 26.04 112.377 25.48C112.097 24.9067 111.957 24.2 111.957 23.36V19.1H110.917C110.597 19.1 110.35 19.02 110.177 18.86C110.003 18.6867 109.917 18.4533 109.917 18.16C109.917 17.8533 110.003 17.62 110.177 17.46C110.35 17.3 110.597 17.22 110.917 17.22H111.957V15.4C111.957 14.9867 112.063 14.6733 112.277 14.46C112.503 14.2467 112.817 14.14 113.217 14.14C113.617 14.14 113.923 14.2467 114.137 14.46C114.35 14.6733 114.457 14.9867 114.457 15.4V17.22H116.577C116.897 17.22 117.143 17.3 117.317 17.46C117.49 17.62 117.577 17.8533 117.577 18.16C117.577 18.4533 117.49 18.6867 117.317 18.86C117.143 19.02 116.897 19.1 116.577 19.1H114.457V23.22C114.457 23.86 114.597 24.34 114.877 24.66C115.157 24.98 115.61 25.14 116.237 25.14C116.463 25.14 116.663 25.12 116.837 25.08C117.01 25.04 117.163 25.0133 117.297 25C117.457 24.9867 117.59 25.04 117.697 25.16C117.803 25.2667 117.857 25.4933 117.857 25.84C117.857 26.1067 117.81 26.3467 117.717 26.56C117.637 26.76 117.483 26.9 117.257 26.98C117.083 27.0333 116.857 27.08 116.577 27.12C116.297 27.1733 116.05 27.2 115.837 27.2ZM122.252 27.2C121.546 27.2 120.912 27.0667 120.352 26.8C119.806 26.52 119.372 26.1467 119.052 25.68C118.746 25.2133 118.592 24.6867 118.592 24.1C118.592 23.38 118.779 22.8133 119.152 22.4C119.526 21.9733 120.132 21.6667 120.972 21.48C121.812 21.2933 122.939 21.2 124.352 21.2H125.352V22.64H124.372C123.546 22.64 122.886 22.68 122.392 22.76C121.899 22.84 121.546 22.98 121.332 23.18C121.132 23.3667 121.032 23.6333 121.032 23.98C121.032 24.42 121.186 24.78 121.492 25.06C121.799 25.34 122.226 25.48 122.772 25.48C123.212 25.48 123.599 25.38 123.932 25.18C124.279 24.9667 124.552 24.68 124.752 24.32C124.952 23.96 125.052 23.5467 125.052 23.08V20.78C125.052 20.1133 124.906 19.6333 124.612 19.34C124.319 19.0467 123.826 18.9 123.132 18.9C122.746 18.9 122.326 18.9467 121.872 19.04C121.432 19.1333 120.966 19.2933 120.472 19.52C120.219 19.64 119.992 19.6733 119.792 19.62C119.606 19.5667 119.459 19.46 119.352 19.3C119.246 19.1267 119.192 18.94 119.192 18.74C119.192 18.54 119.246 18.3467 119.352 18.16C119.459 17.96 119.639 17.8133 119.892 17.72C120.506 17.4667 121.092 17.2867 121.652 17.18C122.226 17.0733 122.746 17.02 123.212 17.02C124.172 17.02 124.959 17.1667 125.572 17.46C126.199 17.7533 126.666 18.2 126.972 18.8C127.279 19.3867 127.432 20.1467 127.432 21.08V25.88C127.432 26.2933 127.332 26.6133 127.132 26.84C126.932 27.0533 126.646 27.16 126.272 27.16C125.899 27.16 125.606 27.0533 125.392 26.84C125.192 26.6133 125.092 26.2933 125.092 25.88V24.92H125.252C125.159 25.3867 124.972 25.7933 124.692 26.14C124.426 26.4733 124.086 26.7333 123.672 26.92C123.259 27.1067 122.786 27.2 122.252 27.2ZM133.31 27.2C132.203 27.2 131.37 26.8867 130.81 26.26C130.25 25.62 129.97 24.6867 129.97 23.46V14C129.97 13.5867 130.077 13.2733 130.29 13.06C130.503 12.8467 130.81 12.74 131.21 12.74C131.61 12.74 131.917 12.8467 132.13 13.06C132.357 13.2733 132.47 13.5867 132.47 14V23.34C132.47 23.9533 132.597 24.4067 132.85 24.7C133.117 24.9933 133.49 25.14 133.97 25.14C134.077 25.14 134.177 25.14 134.27 25.14C134.363 25.1267 134.457 25.1133 134.55 25.1C134.737 25.0733 134.863 25.1267 134.93 25.26C134.997 25.38 135.03 25.6333 135.03 26.02C135.03 26.3533 134.963 26.6133 134.83 26.8C134.697 26.9867 134.477 27.1 134.17 27.14C134.037 27.1533 133.897 27.1667 133.75 27.18C133.603 27.1933 133.457 27.2 133.31 27.2ZM142.166 27.16C141.846 27.16 141.586 27.0867 141.386 26.94C141.2 26.7933 141.086 26.6 141.046 26.36C141.006 26.1067 141.053 25.8267 141.186 25.52L146.466 13.82C146.64 13.4333 146.846 13.16 147.086 13C147.34 12.8267 147.626 12.74 147.946 12.74C148.253 12.74 148.526 12.8267 148.766 13C149.02 13.16 149.233 13.4333 149.406 13.82L154.706 25.52C154.853 25.8267 154.906 26.1067 154.866 26.36C154.826 26.6133 154.713 26.8133 154.526 26.96C154.34 27.0933 154.093 27.16 153.786 27.16C153.413 27.16 153.12 27.0733 152.906 26.9C152.706 26.7133 152.526 26.4333 152.366 26.06L151.066 23.04L152.146 23.74H143.706L144.786 23.04L143.506 26.06C143.333 26.4467 143.153 26.7267 142.966 26.9C142.78 27.0733 142.513 27.16 142.166 27.16ZM147.906 15.68L145.106 22.34L144.586 21.7H151.266L150.766 22.34L147.946 15.68H147.906ZM157.949 27.16C157.536 27.16 157.216 27.0533 156.989 26.84C156.776 26.6133 156.669 26.2933 156.669 25.88V18.32C156.669 17.9067 156.776 17.5933 156.989 17.38C157.202 17.1667 157.502 17.06 157.889 17.06C158.276 17.06 158.576 17.1667 158.789 17.38C159.002 17.5933 159.109 17.9067 159.109 18.32V19.58H158.909C159.096 18.78 159.462 18.1733 160.009 17.76C160.556 17.3467 161.282 17.1 162.189 17.02C162.469 16.9933 162.689 17.0667 162.849 17.24C163.022 17.4 163.122 17.6533 163.149 18C163.176 18.3333 163.096 18.6067 162.909 18.82C162.736 19.02 162.469 19.14 162.109 19.18L161.669 19.22C160.856 19.3 160.242 19.5533 159.829 19.98C159.416 20.3933 159.209 20.98 159.209 21.74V25.88C159.209 26.2933 159.102 26.6133 158.889 26.84C158.676 27.0533 158.362 27.16 157.949 27.16ZM169.548 27.2C168.681 27.2 167.954 27.0533 167.368 26.76C166.794 26.4667 166.368 26.04 166.088 25.48C165.808 24.9067 165.668 24.2 165.668 23.36V19.1H164.628C164.308 19.1 164.061 19.02 163.888 18.86C163.714 18.6867 163.628 18.4533 163.628 18.16C163.628 17.8533 163.714 17.62 163.888 17.46C164.061 17.3 164.308 17.22 164.628 17.22H165.668V15.4C165.668 14.9867 165.774 14.6733 165.988 14.46C166.214 14.2467 166.528 14.14 166.928 14.14C167.328 14.14 167.634 14.2467 167.848 14.46C168.061 14.6733 168.168 14.9867 168.168 15.4V17.22H170.288C170.608 17.22 170.854 17.3 171.028 17.46C171.201 17.62 171.288 17.8533 171.288 18.16C171.288 18.4533 171.201 18.6867 171.028 18.86C170.854 19.02 170.608 19.1 170.288 19.1H168.168V23.22C168.168 23.86 168.308 24.34 168.588 24.66C168.868 24.98 169.321 25.14 169.948 25.14C170.174 25.14 170.374 25.12 170.548 25.08C170.721 25.04 170.874 25.0133 171.008 25C171.168 24.9867 171.301 25.04 171.408 25.16C171.514 25.2667 171.568 25.4933 171.568 25.84C171.568 26.1067 171.521 26.3467 171.428 26.56C171.348 26.76 171.194 26.9 170.968 26.98C170.794 27.0333 170.568 27.08 170.288 27.12C170.008 27.1733 169.761 27.2 169.548 27.2Z"
                    fill="var(--text)" />
            </g>
            <defs>
                <filter id="filter0_i_2_2" x="10" y="0" width="95" height="44" filterUnits="userSpaceOnUse"
                    color-interpolation-filters="sRGB">
                    <feFlood flood-opacity="0" result="BackgroundImageFix" />
                    <feBlend mode="normal" in="SourceGraphic" in2="BackgroundImageFix" result="shape" />
                    <feColorMatrix in="SourceAlpha" type="matrix" values="0 0 0 0 0 0 0 0 0 0 0 0 0 0 0 0 0 0 127 0"
                        result="hardAlpha" />
                    <feOffset dy="4" />
                    <feGaussianBlur stdDeviation="2" />
                    <feComposite in2="hardAlpha" operator="arithmetic" k2="-1" k3="1" />
                    <feColorMatrix type="matrix" values="0 0 0 0 0 0 0 0 0 0 0 0 0 0 0 0 0 0 0.25 0" />
                    <feBlend mode="normal" in2="shape" result="effect1_innerShadow_2_2" />
                </filter>
        </symbol>
    </defs>
</svg>