<svg width="200" height="40" viewBox="0 0 200 40" fill="none" xmlns="http://www.w3.org/2000/svg">
    <defs>
        <symbol id="programming">
            <g id="programming-label" class="label">
                <g id="color-edge" filter="url(#filter0_i_2_2)">
                    <path d="M10 8C10 3.58172 13.5817 0 18 0H105V40H18C13.5817 40 10 36.4183 10 32V8Z"
                        fill="var(--programming-label)" />
                </g>
                <path id="background" d="M51 0H192C196.418 0 200 3.58172 200 8V32C200 36.4183 196.418 40 192 40H51V0Z"
                    fill="#353535" />
                <path id="text"
                    d="M61.4509 27.16C61.0375 27.16 60.7175 27.0467 60.4909 26.82C60.2775 26.58 60.1709 26.2533 60.1709 25.84V14.2C60.1709 13.7733 60.2842 13.4533 60.5109 13.24C60.7375 13.0133 61.0575 12.9 61.4709 12.9H66.2909C67.8375 12.9 69.0309 13.2867 69.8709 14.06C70.7109 14.8333 71.1309 15.9133 71.1309 17.3C71.1309 18.6867 70.7109 19.7733 69.8709 20.56C69.0309 21.3333 67.8375 21.72 66.2909 21.72H62.7309V25.84C62.7309 26.2533 62.6242 26.58 62.4109 26.82C62.1975 27.0467 61.8775 27.16 61.4509 27.16ZM62.7309 19.7H65.8909C66.7975 19.7 67.4842 19.5 67.9509 19.1C68.4175 18.6867 68.6509 18.0867 68.6509 17.3C68.6509 16.5133 68.4175 15.92 67.9509 15.52C67.4842 15.12 66.7975 14.92 65.8909 14.92H62.7309V19.7ZM74.0624 27.16C73.6491 27.16 73.3291 27.0533 73.1024 26.84C72.8891 26.6133 72.7824 26.2933 72.7824 25.88V18.32C72.7824 17.9067 72.8891 17.5933 73.1024 17.38C73.3158 17.1667 73.6158 17.06 74.0024 17.06C74.3891 17.06 74.6891 17.1667 74.9024 17.38C75.1158 17.5933 75.2224 17.9067 75.2224 18.32V19.58H75.0224C75.2091 18.78 75.5758 18.1733 76.1224 17.76C76.6691 17.3467 77.3958 17.1 78.3024 17.02C78.5824 16.9933 78.8024 17.0667 78.9624 17.24C79.1358 17.4 79.2358 17.6533 79.2624 18C79.2891 18.3333 79.2091 18.6067 79.0224 18.82C78.8491 19.02 78.5824 19.14 78.2224 19.18L77.7824 19.22C76.9691 19.3 76.3558 19.5533 75.9424 19.98C75.5291 20.3933 75.3224 20.98 75.3224 21.74V25.88C75.3224 26.2933 75.2158 26.6133 75.0024 26.84C74.7891 27.0533 74.4758 27.16 74.0624 27.16ZM84.9182 27.2C83.9049 27.2 83.0249 26.9933 82.2782 26.58C81.5315 26.1667 80.9515 25.58 80.5382 24.82C80.1249 24.0467 79.9182 23.14 79.9182 22.1C79.9182 21.3133 80.0315 20.6133 80.2582 20C80.4982 19.3733 80.8382 18.84 81.2782 18.4C81.7182 17.9467 82.2449 17.6067 82.8582 17.38C83.4715 17.14 84.1582 17.02 84.9182 17.02C85.9315 17.02 86.8115 17.2267 87.5582 17.64C88.3049 18.0533 88.8849 18.64 89.2982 19.4C89.7115 20.16 89.9182 21.06 89.9182 22.1C89.9182 22.8867 89.7982 23.5933 89.5582 24.22C89.3315 24.8467 88.9982 25.3867 88.5582 25.84C88.1182 26.28 87.5915 26.62 86.9782 26.86C86.3649 27.0867 85.6782 27.2 84.9182 27.2ZM84.9182 25.3C85.4115 25.3 85.8449 25.18 86.2182 24.94C86.5915 24.7 86.8782 24.3467 87.0782 23.88C87.2915 23.4 87.3982 22.8067 87.3982 22.1C87.3982 21.0333 87.1715 20.24 86.7182 19.72C86.2649 19.1867 85.6649 18.92 84.9182 18.92C84.4249 18.92 83.9915 19.04 83.6182 19.28C83.2449 19.5067 82.9515 19.86 82.7382 20.34C82.5382 20.8067 82.4382 21.3933 82.4382 22.1C82.4382 23.1533 82.6649 23.9533 83.1182 24.5C83.5715 25.0333 84.1715 25.3 84.9182 25.3ZM96.5416 30.8C95.8216 30.8 95.1216 30.7333 94.4416 30.6C93.775 30.4667 93.1683 30.26 92.6216 29.98C92.3683 29.8467 92.195 29.6867 92.1016 29.5C92.0216 29.3133 91.995 29.12 92.0216 28.92C92.0616 28.7333 92.1416 28.5667 92.2616 28.42C92.395 28.2733 92.555 28.1733 92.7416 28.12C92.9283 28.0667 93.1216 28.0933 93.3216 28.2C93.9083 28.4933 94.4616 28.68 94.9816 28.76C95.515 28.8533 95.9683 28.9 96.3416 28.9C97.235 28.9 97.9016 28.68 98.3416 28.24C98.795 27.8133 99.0216 27.1733 99.0216 26.32V24.52H99.2016C99.0016 25.2 98.5816 25.7467 97.9416 26.16C97.315 26.56 96.6016 26.76 95.8016 26.76C94.9216 26.76 94.155 26.56 93.5016 26.16C92.8483 25.7467 92.3416 25.1733 91.9816 24.44C91.6216 23.7067 91.4416 22.8533 91.4416 21.88C91.4416 21.1467 91.5416 20.4867 91.7416 19.9C91.955 19.3 92.2483 18.7867 92.6216 18.36C93.0083 17.9333 93.4683 17.6067 94.0016 17.38C94.5483 17.14 95.1483 17.02 95.8016 17.02C96.6283 17.02 97.3483 17.2267 97.9616 17.64C98.5883 18.04 98.995 18.5733 99.1816 19.24L98.9816 19.74V18.32C98.9816 17.9067 99.0883 17.5933 99.3016 17.38C99.5283 17.1667 99.835 17.06 100.222 17.06C100.622 17.06 100.928 17.1667 101.142 17.38C101.355 17.5933 101.462 17.9067 101.462 18.32V26.02C101.462 27.6067 101.042 28.8 100.202 29.6C99.3616 30.4 98.1416 30.8 96.5416 30.8ZM96.4816 24.86C97.0016 24.86 97.4483 24.74 97.8216 24.5C98.195 24.26 98.4816 23.92 98.6816 23.48C98.895 23.0267 99.0016 22.4933 99.0016 21.88C99.0016 20.96 98.775 20.24 98.3216 19.72C97.8683 19.1867 97.255 18.92 96.4816 18.92C95.9616 18.92 95.515 19.04 95.1416 19.28C94.7683 19.52 94.475 19.86 94.2616 20.3C94.0616 20.74 93.9616 21.2667 93.9616 21.88C93.9616 22.8 94.1883 23.5267 94.6416 24.06C95.095 24.5933 95.7083 24.86 96.4816 24.86ZM105.332 27.16C104.919 27.16 104.599 27.0533 104.372 26.84C104.159 26.6133 104.052 26.2933 104.052 25.88V18.32C104.052 17.9067 104.159 17.5933 104.372 17.38C104.585 17.1667 104.885 17.06 105.272 17.06C105.659 17.06 105.959 17.1667 106.172 17.38C106.385 17.5933 106.492 17.9067 106.492 18.32V19.58H106.292C106.479 18.78 106.845 18.1733 107.392 17.76C107.939 17.3467 108.665 17.1 109.572 17.02C109.852 16.9933 110.072 17.0667 110.232 17.24C110.405 17.4 110.505 17.6533 110.532 18C110.559 18.3333 110.479 18.6067 110.292 18.82C110.119 19.02 109.852 19.14 109.492 19.18L109.052 19.22C108.239 19.3 107.625 19.5533 107.212 19.98C106.799 20.3933 106.592 20.98 106.592 21.74V25.88C106.592 26.2933 106.485 26.6133 106.272 26.84C106.059 27.0533 105.745 27.16 105.332 27.16ZM115.006 27.2C114.3 27.2 113.666 27.0667 113.106 26.8C112.56 26.52 112.126 26.1467 111.806 25.68C111.5 25.2133 111.346 24.6867 111.346 24.1C111.346 23.38 111.533 22.8133 111.906 22.4C112.28 21.9733 112.886 21.6667 113.726 21.48C114.566 21.2933 115.693 21.2 117.106 21.2H118.106V22.64H117.126C116.3 22.64 115.64 22.68 115.146 22.76C114.653 22.84 114.3 22.98 114.086 23.18C113.886 23.3667 113.786 23.6333 113.786 23.98C113.786 24.42 113.94 24.78 114.246 25.06C114.553 25.34 114.98 25.48 115.526 25.48C115.966 25.48 116.353 25.38 116.686 25.18C117.033 24.9667 117.306 24.68 117.506 24.32C117.706 23.96 117.806 23.5467 117.806 23.08V20.78C117.806 20.1133 117.66 19.6333 117.366 19.34C117.073 19.0467 116.58 18.9 115.886 18.9C115.5 18.9 115.08 18.9467 114.626 19.04C114.186 19.1333 113.72 19.2933 113.226 19.52C112.973 19.64 112.746 19.6733 112.546 19.62C112.36 19.5667 112.213 19.46 112.106 19.3C112 19.1267 111.946 18.94 111.946 18.74C111.946 18.54 112 18.3467 112.106 18.16C112.213 17.96 112.393 17.8133 112.646 17.72C113.26 17.4667 113.846 17.2867 114.406 17.18C114.98 17.0733 115.5 17.02 115.966 17.02C116.926 17.02 117.713 17.1667 118.326 17.46C118.953 17.7533 119.42 18.2 119.726 18.8C120.033 19.3867 120.186 20.1467 120.186 21.08V25.88C120.186 26.2933 120.086 26.6133 119.886 26.84C119.686 27.0533 119.4 27.16 119.026 27.16C118.653 27.16 118.36 27.0533 118.146 26.84C117.946 26.6133 117.846 26.2933 117.846 25.88V24.92H118.006C117.913 25.3867 117.726 25.7933 117.446 26.14C117.18 26.4733 116.84 26.7333 116.426 26.92C116.013 27.1067 115.54 27.2 115.006 27.2ZM124.004 27.16C123.604 27.16 123.297 27.0533 123.084 26.84C122.87 26.6133 122.764 26.2933 122.764 25.88V18.32C122.764 17.9067 122.87 17.5933 123.084 17.38C123.297 17.1667 123.597 17.06 123.984 17.06C124.37 17.06 124.67 17.1667 124.884 17.38C125.097 17.5933 125.204 17.9067 125.204 18.32V19.78L124.984 19.18C125.25 18.5133 125.664 17.9867 126.224 17.6C126.784 17.2133 127.45 17.02 128.224 17.02C129.01 17.02 129.657 17.2067 130.164 17.58C130.67 17.9533 131.024 18.5267 131.224 19.3H130.944C131.21 18.5933 131.65 18.04 132.264 17.64C132.877 17.2267 133.584 17.02 134.384 17.02C135.13 17.02 135.744 17.1667 136.224 17.46C136.717 17.7533 137.084 18.2 137.324 18.8C137.564 19.3867 137.684 20.1333 137.684 21.04V25.88C137.684 26.2933 137.57 26.6133 137.344 26.84C137.13 27.0533 136.824 27.16 136.424 27.16C136.024 27.16 135.717 27.0533 135.504 26.84C135.29 26.6133 135.184 26.2933 135.184 25.88V21.14C135.184 20.3933 135.057 19.8467 134.804 19.5C134.564 19.1533 134.15 18.98 133.564 18.98C132.91 18.98 132.397 19.2133 132.024 19.68C131.65 20.1333 131.464 20.7667 131.464 21.58V25.88C131.464 26.2933 131.357 26.6133 131.144 26.84C130.93 27.0533 130.624 27.16 130.224 27.16C129.824 27.16 129.51 27.0533 129.284 26.84C129.07 26.6133 128.964 26.2933 128.964 25.88V21.14C128.964 20.3933 128.837 19.8467 128.584 19.5C128.344 19.1533 127.937 18.98 127.364 18.98C126.71 18.98 126.197 19.2133 125.824 19.68C125.45 20.1333 125.264 20.7667 125.264 21.58V25.88C125.264 26.7333 124.844 27.16 124.004 27.16ZM141.543 27.16C141.143 27.16 140.836 27.0533 140.623 26.84C140.41 26.6133 140.303 26.2933 140.303 25.88V18.32C140.303 17.9067 140.41 17.5933 140.623 17.38C140.836 17.1667 141.136 17.06 141.523 17.06C141.91 17.06 142.21 17.1667 142.423 17.38C142.636 17.5933 142.743 17.9067 142.743 18.32V19.78L142.523 19.18C142.79 18.5133 143.203 17.9867 143.763 17.6C144.323 17.2133 144.99 17.02 145.763 17.02C146.55 17.02 147.196 17.2067 147.703 17.58C148.21 17.9533 148.563 18.5267 148.763 19.3H148.483C148.75 18.5933 149.19 18.04 149.803 17.64C150.416 17.2267 151.123 17.02 151.923 17.02C152.67 17.02 153.283 17.1667 153.763 17.46C154.256 17.7533 154.623 18.2 154.863 18.8C155.103 19.3867 155.223 20.1333 155.223 21.04V25.88C155.223 26.2933 155.11 26.6133 154.883 26.84C154.67 27.0533 154.363 27.16 153.963 27.16C153.563 27.16 153.256 27.0533 153.043 26.84C152.83 26.6133 152.723 26.2933 152.723 25.88V21.14C152.723 20.3933 152.596 19.8467 152.343 19.5C152.103 19.1533 151.69 18.98 151.103 18.98C150.45 18.98 149.936 19.2133 149.563 19.68C149.19 20.1333 149.003 20.7667 149.003 21.58V25.88C149.003 26.2933 148.896 26.6133 148.683 26.84C148.47 27.0533 148.163 27.16 147.763 27.16C147.363 27.16 147.05 27.0533 146.823 26.84C146.61 26.6133 146.503 26.2933 146.503 25.88V21.14C146.503 20.3933 146.376 19.8467 146.123 19.5C145.883 19.1533 145.476 18.98 144.903 18.98C144.25 18.98 143.736 19.2133 143.363 19.68C142.99 20.1333 142.803 20.7667 142.803 21.58V25.88C142.803 26.7333 142.383 27.16 141.543 27.16ZM159.042 27.14C158.642 27.14 158.335 27.02 158.122 26.78C157.909 26.54 157.802 26.2067 157.802 25.78V18.44C157.802 18 157.909 17.6667 158.122 17.44C158.335 17.2 158.642 17.08 159.042 17.08C159.442 17.08 159.749 17.2 159.962 17.44C160.189 17.6667 160.302 18 160.302 18.44V25.78C160.302 26.2067 160.195 26.54 159.982 26.78C159.769 27.02 159.455 27.14 159.042 27.14ZM159.042 15.22C158.575 15.22 158.209 15.1067 157.942 14.88C157.689 14.64 157.562 14.3133 157.562 13.9C157.562 13.4733 157.689 13.1467 157.942 12.92C158.209 12.6933 158.575 12.58 159.042 12.58C159.522 12.58 159.889 12.6933 160.142 12.92C160.395 13.1467 160.522 13.4733 160.522 13.9C160.522 14.3133 160.395 14.64 160.142 14.88C159.889 15.1067 159.522 15.22 159.042 15.22ZM164.14 27.16C163.74 27.16 163.433 27.0533 163.22 26.84C163.006 26.6133 162.9 26.2933 162.9 25.88V18.32C162.9 17.9067 163.006 17.5933 163.22 17.38C163.433 17.1667 163.733 17.06 164.12 17.06C164.506 17.06 164.806 17.1667 165.02 17.38C165.233 17.5933 165.34 17.9067 165.34 18.32V19.68L165.12 19.18C165.413 18.4733 165.866 17.94 166.48 17.58C167.106 17.2067 167.813 17.02 168.6 17.02C169.386 17.02 170.033 17.1667 170.54 17.46C171.046 17.7533 171.426 18.2 171.68 18.8C171.933 19.3867 172.06 20.1333 172.06 21.04V25.88C172.06 26.2933 171.953 26.6133 171.74 26.84C171.526 27.0533 171.22 27.16 170.82 27.16C170.42 27.16 170.106 27.0533 169.88 26.84C169.666 26.6133 169.56 26.2933 169.56 25.88V21.16C169.56 20.4 169.413 19.8467 169.12 19.5C168.84 19.1533 168.4 18.98 167.8 18.98C167.066 18.98 166.48 19.2133 166.04 19.68C165.613 20.1333 165.4 20.74 165.4 21.5V25.88C165.4 26.7333 164.98 27.16 164.14 27.16ZM179.159 30.8C178.439 30.8 177.739 30.7333 177.059 30.6C176.392 30.4667 175.785 30.26 175.239 29.98C174.985 29.8467 174.812 29.6867 174.719 29.5C174.639 29.3133 174.612 29.12 174.639 28.92C174.679 28.7333 174.759 28.5667 174.879 28.42C175.012 28.2733 175.172 28.1733 175.359 28.12C175.545 28.0667 175.739 28.0933 175.939 28.2C176.525 28.4933 177.079 28.68 177.599 28.76C178.132 28.8533 178.585 28.9 178.959 28.9C179.852 28.9 180.519 28.68 180.959 28.24C181.412 27.8133 181.639 27.1733 181.639 26.32V24.52H181.819C181.619 25.2 181.199 25.7467 180.559 26.16C179.932 26.56 179.219 26.76 178.419 26.76C177.539 26.76 176.772 26.56 176.119 26.16C175.465 25.7467 174.959 25.1733 174.599 24.44C174.239 23.7067 174.059 22.8533 174.059 21.88C174.059 21.1467 174.159 20.4867 174.359 19.9C174.572 19.3 174.865 18.7867 175.239 18.36C175.625 17.9333 176.085 17.6067 176.619 17.38C177.165 17.14 177.765 17.02 178.419 17.02C179.245 17.02 179.965 17.2267 180.579 17.64C181.205 18.04 181.612 18.5733 181.799 19.24L181.599 19.74V18.32C181.599 17.9067 181.705 17.5933 181.919 17.38C182.145 17.1667 182.452 17.06 182.839 17.06C183.239 17.06 183.545 17.1667 183.759 17.38C183.972 17.5933 184.079 17.9067 184.079 18.32V26.02C184.079 27.6067 183.659 28.8 182.819 29.6C181.979 30.4 180.759 30.8 179.159 30.8ZM179.099 24.86C179.619 24.86 180.065 24.74 180.439 24.5C180.812 24.26 181.099 23.92 181.299 23.48C181.512 23.0267 181.619 22.4933 181.619 21.88C181.619 20.96 181.392 20.24 180.939 19.72C180.485 19.1867 179.872 18.92 179.099 18.92C178.579 18.92 178.132 19.04 177.759 19.28C177.385 19.52 177.092 19.86 176.879 20.3C176.679 20.74 176.579 21.2667 176.579 21.88C176.579 22.8 176.805 23.5267 177.259 24.06C177.712 24.5933 178.325 24.86 179.099 24.86Z"
                    fill="var(--text)" />
            </g>
            <defs>
                <filter id="filter0_i_2_2" x="10" y="0" width="95" height="44" filterUnits="userSpaceOnUse"
                    color-interpolation-filters="sRGB">
                    <feFlood flood-opacity="0" result="BackgroundImageFix" />
                    <feBlend mode="normal" in="SourceGraphic" in2="BackgroundImageFix" result="shape" />
                    <feColorMatrix in="SourceAlpha" type="matrix" values="0 0 0 0 0 0 0 0 0 0 0 0 0 0 0 0 0 0 127 0"
                        result="hardAlpha" />
                    <feOffset dy="4" />
                    <feGaussianBlur stdDeviation="2" />
                    <feComposite in2="hardAlpha" operator="arithmetic" k2="-1" k3="1" />
                    <feColorMatrix type="matrix" values="0 0 0 0 0 0 0 0 0 0 0 0 0 0 0 0 0 0 0.25 0" />
                    <feBlend mode="normal" in2="shape" result="effect1_innerShadow_2_2" />
                </filter>
            </defs>
        </symbol>
    </defs>
</svg>